<svg width="116" height="20" viewBox="0 0 116 20" fill="none" xmlns="http://www.w3.org/2000/svg">
<path d="M4.061 19.2622H0V5.99848C0 5.67098 0.03275 5.34348 0.131 5.01598C0.22925 4.72123 0.42575 4.42648 0.753249 4.19723C1.01525 4.00073 1.2445 3.90248 1.5065 3.83698C1.7685 3.80423 2.0305 3.77148 2.2925 3.77148H7.40149C7.56524 3.77148 7.79449 3.77148 8.05649 3.80423C8.31849 3.83698 8.58049 3.86973 8.87524 3.96798C9.16999 4.06623 9.46474 4.16448 9.75949 4.32823C10.0542 4.49198 10.3162 4.72123 10.5782 4.98323C10.8402 5.27798 11.0695 5.63823 11.2332 5.99848C11.397 6.35873 11.4952 6.75173 11.5935 7.14473C11.659 7.53773 11.7245 7.93073 11.7245 8.29098C11.7572 8.65123 11.7572 8.97873 11.7572 9.27348C11.7572 9.53548 11.7572 9.83023 11.7245 10.2232C11.7245 10.6162 11.6917 11.0092 11.6262 11.435C11.5607 11.8607 11.4952 12.2865 11.3642 12.7122C11.2332 13.138 11.0695 13.531 10.873 13.8257C10.611 14.2187 10.349 14.5135 10.0215 14.71C9.69399 14.9392 9.36649 15.0702 9.03899 15.2012C8.67874 15.2995 8.35124 15.365 8.02374 15.3977C7.69624 15.4305 7.36874 15.4305 7.07399 15.4305H4.061V19.2622ZM5.86225 12.352C6.32075 12.352 6.64825 12.2537 6.8775 12.0572C7.10675 11.8607 7.27049 11.6642 7.36874 11.4677C7.46699 11.2385 7.56524 10.9765 7.56524 10.649C7.59799 10.3542 7.59799 9.99398 7.59799 9.63373C7.59799 9.30623 7.59799 8.97873 7.56524 8.71673C7.53249 8.42198 7.49974 8.19273 7.40149 7.93073C7.30324 7.70148 7.20499 7.50498 7.07399 7.37398C6.94299 7.24298 6.77924 7.14473 6.64825 7.07923C6.51725 7.01373 6.3535 6.98098 6.2225 6.94823C6.0915 6.94823 5.99325 6.91548 5.92775 6.91548H4.48675C4.454 6.91548 4.3885 6.94823 4.323 6.98098C4.2575 7.01373 4.192 7.04648 4.15925 7.07923C4.061 7.17748 4.02825 7.30848 4.02825 7.47223V12.352H5.86225Z" fill="#050505"/>
<path d="M16.8329 3.77197V9.60147C16.8329 10.1582 16.8657 10.584 16.9312 10.9115C16.9967 11.2062 17.0949 11.4682 17.2259 11.632C17.3242 11.7957 17.4552 11.9595 17.6189 12.0577C17.7827 12.156 17.9137 12.2215 18.0774 12.2542C18.2412 12.287 18.3722 12.3197 18.5359 12.3525C18.6997 12.3525 18.8307 12.3852 18.9617 12.3852H19.7149C20.0424 12.3852 20.2717 12.3197 20.4354 12.156C20.5337 12.025 20.5992 11.9267 20.6319 11.7957C20.6319 11.6647 20.6647 11.5665 20.6647 11.4355V3.77197H24.7257V13.1057C24.7257 13.4332 24.6929 13.7607 24.6274 14.0882C24.5619 14.4157 24.3654 14.7105 24.0707 14.9725C23.8087 15.2345 23.4812 15.3655 23.1209 15.431C22.7607 15.4965 22.4987 15.4965 22.2694 15.4965H17.2259C16.4399 15.4965 15.7849 15.3982 15.2937 15.2017C14.8352 14.9725 14.4422 14.7432 14.1802 14.4812C13.6234 13.99 13.2304 13.3677 13.0667 12.6145C12.9029 11.8612 12.8047 11.0425 12.8047 10.1582V3.77197H16.8329Z" fill="#050505"/>
<path d="M29.9985 3.77197V9.60147C29.9985 10.1582 30.0312 10.584 30.0967 10.9115C30.1622 11.2062 30.2605 11.4682 30.3915 11.632C30.4897 11.7957 30.6207 11.9595 30.7845 12.0577C30.9482 12.156 31.0792 12.2215 31.243 12.2542C31.4067 12.287 31.5377 12.3197 31.7015 12.3525C31.8652 12.3525 31.9962 12.3852 32.1272 12.3852H32.8805C33.208 12.3852 33.4372 12.3197 33.601 12.156C33.6992 12.025 33.7647 11.9267 33.7975 11.7957C33.7975 11.6647 33.8302 11.5665 33.8302 11.4355V3.77197H37.8912V13.1057C37.8912 13.4332 37.8585 13.7607 37.7602 14.0882C37.6947 14.4157 37.4982 14.7105 37.2035 14.9725C36.9415 15.2345 36.614 15.3655 36.2537 15.431C35.8935 15.4965 35.6315 15.4965 35.4022 15.4965H30.3915C29.6055 15.4965 28.9505 15.3982 28.4592 15.2017C27.968 15.0052 27.575 14.776 27.313 14.514C26.7562 14.0227 26.3632 13.4005 26.1995 12.6472C26.003 11.894 25.9375 11.0752 25.9375 10.191V3.77197H29.9985Z" fill="#050505"/>
<path d="M39.1364 8.6189C39.1364 8.32415 39.1692 8.0294 39.2019 7.7019C39.2347 7.3744 39.3002 7.0469 39.3984 6.68665C39.4967 6.3264 39.6277 5.9989 39.8242 5.70415C40.0207 5.37665 40.2499 5.0819 40.5447 4.8199C40.8722 4.5579 41.1997 4.3614 41.5599 4.2304C41.9202 4.0994 42.2804 4.00115 42.6734 3.93565C43.0337 3.87015 43.3939 3.8374 43.7214 3.8374C44.0489 3.8374 44.3764 3.8374 44.6384 3.8374L47.3239 3.9029L47.2584 6.94865L45.8502 6.9159C45.4572 6.9159 45.0642 6.94865 44.7039 7.0469C44.3437 7.14515 44.0489 7.3744 43.7542 7.73465C43.5249 8.06215 43.3612 8.4224 43.2957 8.84815C43.2302 9.24115 43.1974 9.63415 43.1647 9.96165L43.0337 15.5619L38.9727 15.3981L39.1364 8.6189Z" fill="#050505"/>
<path d="M47.6857 12.353H53.6789C53.7772 12.353 53.8427 12.3202 53.9409 12.2547C54.0064 12.222 54.0392 12.1237 54.0392 12.0255C54.0392 11.96 54.0064 11.8945 53.9737 11.8617C53.9409 11.829 53.8754 11.7962 53.8427 11.7635C53.7772 11.7307 53.6462 11.6652 53.4824 11.6325C53.3187 11.567 53.0239 11.4687 52.5982 11.305L50.2402 10.4862C49.7489 10.3225 49.2904 10.0932 48.8974 9.86396C48.5044 9.63471 48.1769 9.30721 47.9804 8.94696C47.8167 8.65221 47.7184 8.35746 47.6529 7.96446C47.5874 7.60421 47.5547 7.27671 47.5547 6.98196C47.5547 6.62171 47.5874 6.26146 47.6529 5.90121C47.7184 5.54096 47.8494 5.21346 48.0459 4.88596C48.3407 4.42746 48.7009 4.09996 49.0939 3.96896C49.5197 3.83796 50.0109 3.77246 50.6004 3.77246H57.9364V6.78546H51.9432C51.8777 6.78546 51.8122 6.78546 51.7139 6.78546C51.6157 6.78546 51.5502 6.78546 51.4519 6.81821C51.3864 6.81821 51.3537 6.85096 51.3209 6.88371C51.2882 6.91646 51.2554 6.94921 51.2554 7.01471C51.2554 7.11296 51.2882 7.17846 51.3209 7.17846C51.3537 7.21121 51.4192 7.24396 51.4847 7.27671C51.6157 7.30946 51.7139 7.34221 51.7467 7.37496C51.8122 7.40771 51.8449 7.40771 51.8777 7.44046C51.9104 7.47321 51.9759 7.47321 52.0087 7.50596C52.0742 7.53871 52.1397 7.57146 52.2707 7.60421L55.0544 8.58671C55.6439 8.78321 56.1352 9.01246 56.5609 9.24171C56.9867 9.47096 57.3142 9.76571 57.5762 10.1915C57.8382 10.5845 58.0019 11.0102 58.0674 11.436C58.1329 11.8617 58.1657 12.1892 58.1657 12.4512C58.1657 12.877 58.1002 13.3355 58.0019 13.794C57.8709 14.2525 57.6417 14.6455 57.2487 14.973C56.9539 15.235 56.6592 15.366 56.3317 15.4315C56.0042 15.497 55.7094 15.5297 55.4474 15.5297H47.5874V12.353H47.6857Z" fill="#050505"/>
<path d="M63.3383 19.2623H59.2773V5.99852C59.2773 5.67102 59.3101 5.34352 59.4083 5.01602C59.5066 4.72127 59.7031 4.42652 60.0306 4.16452C60.2926 3.96802 60.5218 3.86977 60.7838 3.80427C61.0458 3.77152 61.3078 3.73877 61.5698 3.73877H66.6788C66.8426 3.73877 67.0718 3.73877 67.3338 3.77152C67.5958 3.80427 67.8578 3.83702 68.1526 3.93527C68.4473 4.03352 68.7421 4.13177 69.0368 4.29552C69.3316 4.45927 69.5936 4.68852 69.8556 4.95052C70.1176 5.24527 70.3468 5.60552 70.5106 5.96577C70.6743 6.32602 70.7726 6.71902 70.8708 7.11202C70.9363 7.50502 71.0018 7.89802 71.0018 8.25827C71.0346 8.61852 71.0346 8.94602 71.0346 9.24077C71.0346 9.50277 71.0346 9.79752 71.0018 10.1905C71.0018 10.5835 70.9691 10.9765 70.9036 11.4023C70.8381 11.828 70.7726 12.2538 70.6416 12.6795C70.5106 13.1053 70.3468 13.4983 70.1503 13.793C69.8883 14.186 69.6263 14.4808 69.2988 14.6773C68.9713 14.9065 68.6438 15.0375 68.3163 15.1685C67.9561 15.2668 67.6286 15.3323 67.3011 15.365C66.9736 15.3978 66.6461 15.3978 66.3513 15.3978H63.3383V19.2623ZM65.1396 12.352C65.5981 12.352 65.9256 12.2538 66.1548 12.0573C66.3841 11.8608 66.5478 11.6643 66.6461 11.4678C66.7443 11.2385 66.8426 10.9765 66.8426 10.649C66.8753 10.3543 66.8753 9.99402 66.8753 9.63377C66.8753 9.30627 66.8753 8.97877 66.8426 8.71677C66.8098 8.42202 66.7771 8.19277 66.6788 7.93077C66.5806 7.70152 66.4823 7.50502 66.3513 7.37402C66.2203 7.24302 66.0566 7.14477 65.9256 7.07927C65.7946 7.01377 65.6308 6.98102 65.4998 6.94827C65.3688 6.94827 65.2706 6.91552 65.2051 6.91552H63.7641C63.7313 6.91552 63.6658 6.94827 63.6003 6.98102C63.5348 7.01377 63.4693 7.04652 63.4366 7.07927C63.3383 7.17752 63.3056 7.30852 63.3056 7.47227V12.352H65.1396Z" fill="#050505"/>
<path d="M79.8441 3.77152C80.5318 3.77152 81.0886 3.86977 81.5471 4.09902C82.0056 4.32827 82.3331 4.55752 82.5623 4.78677C82.7916 5.01602 82.9553 5.27802 83.1191 5.57277C83.2501 5.86752 83.3811 6.16227 83.4466 6.42427C83.5121 6.71902 83.5776 7.01377 83.5776 7.27577C83.6103 7.57052 83.6103 7.83252 83.6103 8.06177V12.9743C83.6103 13.269 83.5776 13.5965 83.5121 13.924C83.4466 14.2515 83.3156 14.5463 83.0536 14.841C82.7916 15.1358 82.4968 15.2995 82.1693 15.365C81.8418 15.4305 81.5143 15.4633 81.1868 15.4633H74.7023C74.3421 15.4633 74.0146 15.4305 73.6543 15.365C73.2941 15.2995 72.9666 15.1358 72.7046 14.841C72.5081 14.6445 72.3443 14.3825 72.2133 14.1205C72.0823 13.8258 71.9841 13.5638 71.9513 13.2363C71.8858 12.9415 71.8531 12.6468 71.8531 12.352C71.8531 12.0573 71.8203 11.7953 71.8203 11.566C71.8203 11.304 71.8203 11.042 71.8531 10.78C71.8858 10.518 71.9186 10.2233 71.9841 9.96127C72.0496 9.69927 72.1478 9.43727 72.2788 9.20802C72.4098 8.97877 72.5736 8.78227 72.8028 8.58577C73.0976 8.32377 73.4251 8.19277 73.7526 8.12727C74.0801 8.09452 74.4076 8.06177 74.7351 8.06177H79.5493V7.89802C79.5493 7.79977 79.5493 7.66877 79.5166 7.53777C79.4838 7.40677 79.4511 7.27577 79.3528 7.11202C79.1891 6.88277 78.9926 6.75177 78.7633 6.71902C78.5341 6.68627 78.3048 6.65352 78.1083 6.65352H72.5736V3.73877H79.8441V3.77152ZM76.6346 10.8783C76.5691 10.8783 76.4708 10.8783 76.3398 10.911C76.2088 10.9438 76.1106 10.9765 76.0123 11.0748C75.9468 11.1403 75.9141 11.2385 75.8813 11.3368C75.8486 11.435 75.8486 11.5333 75.8486 11.6315C75.8486 11.7298 75.8486 11.7953 75.8813 11.8935C75.9141 11.9918 75.9468 12.0573 76.0123 12.1228C76.0778 12.1883 76.1761 12.2538 76.2743 12.2865C76.3726 12.3193 76.4708 12.3193 76.5691 12.3193H78.6978C78.7961 12.3193 78.9271 12.3193 79.0253 12.2865C79.1236 12.2538 79.2218 12.221 79.2873 12.1555C79.3856 12.09 79.4511 11.9918 79.4511 11.8935C79.4838 11.7953 79.4838 11.697 79.4838 11.5988V10.8783H76.6346Z" fill="#050505"/>
<path d="M84.8242 5.86748C84.8242 5.63823 84.857 5.40898 84.8897 5.14698C84.9225 4.88498 85.0535 4.65573 85.2827 4.42648C85.4465 4.26273 85.6102 4.13173 85.8067 4.03348C86.0032 3.93523 86.2325 3.86973 86.4617 3.83698C86.691 3.80423 86.8875 3.77148 87.1167 3.77148C87.346 3.77148 87.5097 3.77148 87.6735 3.77148H91.5052C92.1275 3.77148 92.7825 3.83698 93.4047 3.93523C94.027 4.03348 94.6492 4.32823 95.206 4.81948C95.5007 5.08148 95.7627 5.37623 95.9265 5.67098C96.0902 5.96573 96.254 6.26048 96.3522 6.58798C96.4505 6.88273 96.516 7.21023 96.5487 7.50498C96.5815 7.79973 96.5815 8.06173 96.5815 8.32373V15.5287H92.5205V9.53548C92.5205 9.10973 92.4877 8.74948 92.4222 8.42198C92.3567 8.09448 92.2257 7.79973 92.062 7.53773C91.8982 7.27573 91.669 7.11198 91.407 6.98098C91.145 6.88273 90.8175 6.81723 90.3917 6.81723H89.6712C89.573 6.81723 89.5075 6.81723 89.3765 6.84998C89.2782 6.88273 89.18 6.91548 89.0817 6.98098C88.9835 7.07923 88.918 7.17748 88.918 7.30848C88.918 7.40673 88.918 7.53773 88.918 7.63598V15.4632H84.857V5.86748H84.8242Z" fill="#050505"/>
<path d="M95.5312 16.4454C96.1207 16.4454 96.5793 16.4454 96.9068 16.3471C97.2343 16.2816 97.529 16.1179 97.8237 15.8886C98.0857 15.6594 98.2822 15.3974 98.446 15.0699C98.577 14.7424 98.6753 14.2839 98.6753 13.6616V3.77113H102.736V14.5786C102.736 14.8406 102.736 15.1354 102.703 15.4629C102.671 15.7904 102.605 16.1506 102.507 16.5109C102.409 16.8711 102.245 17.1986 102.016 17.5261C101.787 17.8536 101.525 18.1484 101.164 18.4104C100.64 18.7706 99.9525 19.0326 99.0683 19.1309C98.184 19.2291 97.0378 19.2946 95.564 19.2619V16.4454H95.5312ZM98.6753 2.59213V0.00488281H102.736V2.59213H98.6753Z" fill="#050505"/>
<path d="M108.204 15.4971C107.778 15.4971 107.385 15.4971 107.025 15.4644C106.665 15.4644 106.304 15.3989 105.977 15.3006C105.649 15.2024 105.355 15.0386 105.06 14.8421C104.765 14.6456 104.536 14.3509 104.307 13.9579C104.078 13.5321 103.914 12.9754 103.848 12.3204C103.783 11.6654 103.75 10.8139 103.75 9.73313C103.75 9.20913 103.75 8.68513 103.75 8.19388C103.75 7.70263 103.783 7.24413 103.816 6.81838C103.881 6.39263 103.946 5.99963 104.077 5.67214C104.208 5.31189 104.405 5.01714 104.634 4.75514C104.896 4.46039 105.191 4.26389 105.584 4.10014C105.977 3.93639 106.37 3.83814 106.828 3.77264C107.287 3.70714 107.778 3.64164 108.269 3.64164C108.761 3.64164 109.285 3.60889 109.809 3.60889C110.922 3.60889 111.872 3.64164 112.592 3.70714C113.313 3.77264 113.902 4.00189 114.361 4.39489C114.623 4.62414 114.819 4.88614 114.983 5.21364C115.147 5.54114 115.278 5.86864 115.343 6.22889C115.442 6.58913 115.474 6.94938 115.507 7.30963C115.54 7.66988 115.54 7.99738 115.54 8.32488C115.54 8.71788 115.507 9.11088 115.442 9.47113C115.376 9.86413 115.18 10.1916 114.885 10.4536C114.721 10.6174 114.525 10.7156 114.361 10.7484C114.197 10.7811 114.001 10.7811 113.804 10.7811H107.811C107.811 10.9449 107.811 11.1086 107.844 11.3051C107.876 11.4689 107.942 11.6326 108.007 11.7636C108.171 12.0584 108.433 12.2221 108.793 12.2549C109.121 12.2876 109.481 12.3204 109.841 12.3204H115.18V15.4644H108.204V15.4971ZM110.824 8.09563C111.119 8.09563 111.282 8.03013 111.381 7.86638C111.446 7.73538 111.512 7.57163 111.512 7.47338C111.512 7.30963 111.446 7.14588 111.381 7.01488C111.282 6.88388 111.086 6.75288 110.791 6.68738C110.627 6.65463 110.431 6.62189 110.202 6.62189C109.973 6.62189 109.809 6.58914 109.711 6.58914C109.481 6.58914 109.219 6.58914 108.957 6.62189C108.695 6.65464 108.466 6.68739 108.302 6.78563C108.106 6.91664 107.975 7.08038 107.909 7.30963C107.844 7.53888 107.844 7.80088 107.876 8.09563H110.824Z" fill="#050505"/>
</svg>
